# xmcd
#
# Track frame offsets: 
#        150
#        27092
#        46222
#        62182
#        92370
#        110020
#        139635
#        163702
#        185125
#        199600
#
# Disc length: 2842 seconds
#
# Revision: 7
# Processed by: cddbd v1.5.2PL0 Copyright (c) Steve Scherf et al.
# Submitted via: ExactAudioCopy v0.95b3
#
DISCID=840b180a
DTITLE=The Band - Northern Lights-Southern Cross
DYEAR=1975
DGENRE=Rock
TTITLE0=Forbidden Fruit
TTITLE1=Hobo Jungle
TTITLE2=Ophelia
TTITLE3=Acadian Driftwood
TTITLE4=Ring Your Bell
TTITLE5=It Makes No Difference
TTITLE6=Jupiter Hollow
TTITLE7=Rags and Bones
TTITLE8=Twilight [early alternate version]
TTITLE9=Christmas Must Be Tonight [alternate version]
EXTD=Originally released 1975, remastered 2001 YEAR: 1975
EXTT0=
EXTT1=
EXTT2=
EXTT3=
EXTT4=
EXTT5=
EXTT6=
EXTT7=
EXTT8=
EXTT9=
PLAYORDER=
